# xmcd
#
# Track frame offsets:
# 150
# 20012
# 38540
# 53612
# 72247
# 87458
# 106357
# 121527
# 140171
# 155251
# 171075
#
# Disc length: 2494 seconds
#
#
# Revision: 0
# Processed by: cddbd v1.5.1PL2 Copyright (c) Steve Scherf et al.
# Submitted via: FreeRIP 2.50 
#
DISCID=8909bc0b
DTITLE=Derek Herman - Gonna Be One Hell Of A Day
DYEAR=2005
DGENRE=Country
TTITLE0=Out Of Control
TTITLE1=Working Man Tough
TTITLE2=Tell Me I'm Wrong
TTITLE3=Nowhere Fast
TTITLE4=Still On The Move
TTITLE5=Tailor Made
TTITLE6=Buckle Up
TTITLE7=Someday
TTITLE8=Gonna Be One Hell Of A Day
TTITLE9=Not Enough Time To Play
TTITLE10=Guitars And Women
EXTD=
EXTT0=
EXTT1=
EXTT2=
EXTT3=
EXTT4=
EXTT5=
EXTT6=
EXTT7=
EXTT8=
EXTT9=
EXTT10=
PLAYORDER=
